<?xml version="1.0" encoding="UTF-8"?>
<svg xmlns="http://www.w3.org/2000/svg" xmlns:xlink="http://www.w3.org/1999/xlink" viewBox="0 0 20 20" width="20px" height="20px">
<g id="surface298546008">
<path style=" stroke:none;fill-rule:nonzero;fill:rgb(100%,100%,100%);fill-opacity:1;" d="M 4 2.667969 C 3.261719 2.667969 2.667969 3.261719 2.667969 4 L 2.667969 16 C 2.667969 16.738281 3.261719 17.332031 4 17.332031 L 16 17.332031 C 16.738281 17.332031 17.332031 16.738281 17.332031 16 L 17.332031 4 C 17.332031 3.261719 16.738281 2.667969 16 2.667969 Z M 11.667969 7.332031 L 13.371094 7.332031 C 13.554688 7.332031 13.703125 7.484375 13.703125 7.667969 C 13.703125 7.851562 13.554688 8 13.371094 8 L 11.667969 8 C 11.484375 8 11.332031 7.851562 11.332031 7.667969 C 11.332031 7.484375 11.484375 7.332031 11.667969 7.332031 Z M 5.945312 7.589844 L 7.804688 7.589844 C 8.898438 7.589844 9.554688 8.125 9.554688 9 C 9.554688 9.597656 9.109375 10.121094 8.53125 10.207031 L 8.53125 10.277344 C 9.277344 10.332031 9.824219 10.894531 9.824219 11.621094 C 9.824219 12.613281 9.074219 13.238281 7.871094 13.238281 L 5.945312 13.238281 C 5.609375 13.238281 5.332031 12.964844 5.332031 12.625 L 5.332031 8.203125 C 5.332031 7.863281 5.609375 7.589844 5.945312 7.589844 Z M 6.515625 8.492188 L 6.515625 9.929688 L 7.402344 9.929688 C 8.042969 9.933594 8.390625 9.667969 8.390625 9.214844 C 8.390625 8.765625 8.066406 8.492188 7.503906 8.492188 Z M 12.640625 8.828125 C 13.914062 8.828125 14.664062 9.636719 14.664062 11.007812 L 14.664062 11.355469 L 11.703125 11.355469 L 11.703125 11.414062 C 11.71875 12.054688 12.09375 12.457031 12.691406 12.457031 C 13.140625 12.457031 13.449219 12.296875 13.570312 12.011719 L 14.632812 12.011719 C 14.460938 12.824219 13.714844 13.332031 12.65625 13.332031 C 11.34375 13.332031 10.566406 12.503906 10.566406 11.101562 C 10.566406 9.695312 11.359375 8.828125 12.640625 8.828125 Z M 12.648438 9.699219 C 12.117188 9.699219 11.746094 10.066406 11.707031 10.628906 L 13.546875 10.628906 C 13.523438 10.054688 13.179688 9.699219 12.648438 9.699219 Z M 6.515625 10.730469 L 6.515625 12.335938 L 7.570312 12.335938 C 8.25 12.335938 8.617188 12.050781 8.617188 11.519531 C 8.617188 11.003906 8.238281 10.730469 7.542969 10.730469 Z M 6.515625 10.730469 "/>
</g>
</svg>
