<?xml version="1.0" encoding="UTF-8"?>
<svg xmlns="http://www.w3.org/2000/svg" xmlns:xlink="http://www.w3.org/1999/xlink" viewBox="0 0 20 20" width="20px" height="20px">
<g id="surface299413949">
<path style=" stroke:none;fill-rule:nonzero;fill:rgb(100%,100%,100%);fill-opacity:1;" d="M 18.667969 4.625 C 18.027344 4.90625 17.34375 5.097656 16.625 5.183594 C 17.359375 4.746094 17.921875 4.046875 18.1875 3.21875 C 17.5 3.625 16.738281 3.921875 15.929688 4.082031 C 15.28125 3.390625 14.355469 2.957031 13.332031 2.957031 C 11.371094 2.957031 9.777344 4.550781 9.777344 6.511719 C 9.777344 6.792969 9.808594 7.0625 9.871094 7.324219 C 6.914062 7.175781 4.292969 5.757812 2.539062 3.605469 C 2.234375 4.132812 2.058594 4.742188 2.058594 5.394531 C 2.058594 6.628906 2.6875 7.71875 3.640625 8.355469 C 3.058594 8.335938 2.507812 8.175781 2.03125 7.910156 C 2.03125 7.925781 2.03125 7.941406 2.03125 7.957031 C 2.03125 9.679688 3.253906 11.117188 4.882812 11.441406 C 4.585938 11.523438 4.269531 11.566406 3.945312 11.566406 C 3.714844 11.566406 3.492188 11.542969 3.277344 11.503906 C 3.730469 12.914062 5.042969 13.945312 6.597656 13.972656 C 5.382812 14.925781 3.847656 15.496094 2.179688 15.496094 C 1.894531 15.496094 1.613281 15.480469 1.332031 15.445312 C 2.90625 16.453125 4.773438 17.042969 6.785156 17.042969 C 13.324219 17.042969 16.902344 11.625 16.902344 6.925781 C 16.902344 6.769531 16.898438 6.617188 16.890625 6.464844 C 17.585938 5.964844 18.191406 5.335938 18.667969 4.625 Z M 18.667969 4.625 "/>
</g>
</svg>
